<?xml version="1.0" encoding="utf-8"?>
<!-- Generator: Adobe Illustrator 25.2.3, SVG Export Plug-In . SVG Version: 6.00 Build 0)  -->
<svg version="1.1" id="Layer_1" xmlns="http://www.w3.org/2000/svg" xmlns:xlink="http://www.w3.org/1999/xlink" x="0px" y="0px"
	 viewBox="0 0 512 512" style="enable-background:new 0 0 512 512;" xml:space="preserve">
<style type="text/css">
	.st0{fill:#584DAD;}
</style>
<path class="st0" d="M108.7,145c0-9.7,3.4-17.8,10.2-24.1c6.8-6.3,15.7-9.5,26.6-9.5c10.7,0,19.4,3.1,26,9.3
	c6.8,6.4,10.2,14.8,10.2,25.1c0,9.3-3.3,17.1-9.9,23.4c-6.8,6.4-15.8,9.6-26.9,9.6h-0.3c-10.7,0-19.4-3.2-26-9.6
	S108.7,154.8,108.7,145z M112.5,400.5V205.5h64.8v195.1L112.5,400.5L112.5,400.5z M213.3,400.5h64.8V291.6c0-6.8,0.8-12.1,2.3-15.8
	c2.7-6.6,6.9-12.2,12.4-16.8c5.5-4.6,12.5-6.9,20.9-6.9c21.8,0,32.7,14.7,32.7,44.1v104.2h64.8V288.7c0-28.8-6.8-50.7-20.4-65.6
	s-31.6-22.3-54-22.3c-25.1,0-44.7,10.8-58.7,32.4v0.6h-0.3l0.3-0.6v-27.7h-64.8c0.4,6.2,0.6,25.6,0.6,58.1
	C213.9,296.1,213.7,341.8,213.3,400.5z"/>
</svg>
