<?xml version="1.0" encoding="utf-8"?>
<!-- Generator: Adobe Illustrator 24.3.0, SVG Export Plug-In . SVG Version: 6.00 Build 0)  -->
<svg version="1.1" id="Layer_1" xmlns="http://www.w3.org/2000/svg" xmlns:xlink="http://www.w3.org/1999/xlink" x="0px" y="0px"
	 viewBox="0 0 512 512" style="enable-background:new 0 0 512 512;" xml:space="preserve">
<style type="text/css">
	.st0{fill:#0E76A8;}
	.st1{fill:#333333;}
</style>
<path class="st1" d="M108.74,145.04c0-9.73,3.41-17.76,10.22-24.09c6.81-6.33,15.67-9.49,26.57-9.49c10.71,0,19.37,3.11,25.99,9.34
	c6.81,6.42,10.22,14.79,10.22,25.11c0,9.34-3.31,17.13-9.93,23.36c-6.81,6.42-15.77,9.64-26.86,9.64h-0.29
	c-10.71,0-19.37-3.21-25.99-9.64S108.74,154.77,108.74,145.04z M112.54,400.54V205.48h64.83v195.06H112.54z M213.28,400.54h64.83
	V291.62c0-6.81,0.78-12.07,2.34-15.77c2.73-6.62,6.86-12.22,12.41-16.79c5.55-4.57,12.51-6.86,20.88-6.86
	c21.8,0,32.7,14.7,32.7,44.09v104.25h64.83V288.7c0-28.81-6.81-50.66-20.44-65.56s-31.63-22.34-54.02-22.34
	c-25.11,0-44.68,10.8-58.69,32.41v0.58h-0.29l0.29-0.58v-27.74h-64.83c0.39,6.23,0.58,25.6,0.58,58.11
	C213.86,296.1,213.67,341.75,213.28,400.54z"/>
</svg>
