<?xml version="1.0" encoding="utf-8"?>
<!-- Generator: Adobe Illustrator 25.2.3, SVG Export Plug-In . SVG Version: 6.00 Build 0)  -->
<svg version="1.1" id="Layer_1" xmlns="http://www.w3.org/2000/svg" xmlns:xlink="http://www.w3.org/1999/xlink" x="0px" y="0px"
	 viewBox="0 0 512 512" style="enable-background:new 0 0 512 512;" xml:space="preserve">
<style type="text/css">
	.st0{fill-rule:evenodd;clip-rule:evenodd;fill:#584DAD;}
</style>
<g id="XMLID_1_">
	<g id="XMLID_2_">
		<g>
			<path id="XMLID_3_" class="st0" d="M256,425.5c-93.6,0-169.7-76-169.7-169.5S162.4,86.5,256,86.5s169.7,76,169.7,169.5
				C425.7,349.5,349.6,425.5,256,425.5L256,425.5z M399.1,279.2c-5-1.6-44.9-13.5-90.3-6.2c19,52,26.7,94.4,28.2,103.2
				C369.5,354.3,392.7,319.5,399.1,279.2L399.1,279.2z M312.6,389.5c-2.2-12.7-10.6-57-30.9-109.8c-0.3,0.1-0.6,0.2-1,0.3
				C199,308.5,169.6,365.1,167,370.4c24.6,19.1,55.5,30.6,89,30.6C276.1,401,295.2,396.9,312.6,389.5L312.6,389.5z M148.3,353
				c3.3-5.6,43.1-71.4,117.8-95.5c1.9-0.6,3.8-1.2,5.7-1.7c-3.6-8.2-7.6-16.5-11.8-24.6c-72.4,21.6-142.6,20.7-149,20.6
				c0,1.5-0.1,2.9-0.1,4.4C111,293.4,125.2,327.4,148.3,353L148.3,353z M114.1,226.6c6.5,0.1,66.2,0.3,134-17.6
				c-24-42.6-49.9-78.5-53.7-83.7C153.8,144.3,123.5,181.7,114.1,226.6L114.1,226.6z M222,115.5c4,5.4,30.3,41.2,54.1,84.8
				c51.5-19.3,73.4-48.6,76-52.3c-25.6-22.7-59.3-36.5-96.1-36.5C244.3,111.5,232.9,112.9,222,115.5L222,115.5z M368.2,164.7
				c-3.1,4.1-27.4,35.2-80.9,57.1c3.4,6.9,6.6,13.9,9.6,21c1.1,2.5,2.1,5,3.1,7.5c48.2-6.1,96.2,3.6,100.9,4.7
				C400.6,220.7,388.4,189.3,368.2,164.7L368.2,164.7z"/>
		</g>
	</g>
</g>
</svg>
