<?xml version="1.0" encoding="utf-8"?>
<!-- Generator: Adobe Illustrator 24.3.0, SVG Export Plug-In . SVG Version: 6.00 Build 0)  -->
<svg version="1.1" id="Layer_1" xmlns="http://www.w3.org/2000/svg" xmlns:xlink="http://www.w3.org/1999/xlink" x="0px" y="0px"
	 viewBox="0 0 512 512" style="enable-background:new 0 0 512 512;" xml:space="preserve">
<style type="text/css">
	.st0{fill:#0E76A8;}
	.st1{fill:#333333;}
</style>
<g id="XMLID_1_">
	<g id="XMLID_2_">
		<defs>
			<path id="XMLID_3_" d="M256,425.48c-93.58,0-169.71-76.03-169.71-169.48c0-93.45,76.13-169.48,169.71-169.48
				c93.58,0,169.71,76.03,169.71,169.48C425.71,349.45,349.58,425.48,256,425.48L256,425.48z M399.12,279.2
				c-4.96-1.56-44.87-13.45-90.29-6.19c18.96,52.03,26.68,94.41,28.16,103.22C369.51,354.27,392.66,319.48,399.12,279.2
				L399.12,279.2z M312.62,389.48c-2.16-12.7-10.57-56.97-30.92-109.78c-0.32,0.11-0.64,0.21-0.96,0.32
				c-81.76,28.45-111.11,85.08-113.72,90.4c24.58,19.14,55.47,30.56,88.98,30.56C276.08,400.99,295.22,396.88,312.62,389.48
				L312.62,389.48z M148.31,353.01c3.28-5.61,43.07-71.4,117.83-95.53c1.89-0.61,3.79-1.18,5.71-1.72
				c-3.64-8.22-7.6-16.46-11.75-24.57c-72.39,21.64-142.64,20.73-148.98,20.6c-0.04,1.47-0.07,2.94-0.07,4.42
				C111.04,293.4,125.16,327.35,148.31,353.01L148.31,353.01z M114.1,226.57c6.48,0.09,66.2,0.34,134.01-17.64
				c-24.02-42.64-49.92-78.49-53.74-83.72C153.82,144.31,123.5,181.65,114.1,226.57L114.1,226.57z M222.03,115.48
				c4.01,5.36,30.33,41.16,54.09,84.75c51.55-19.29,73.37-48.58,75.97-52.29c-25.6-22.68-59.26-36.48-96.09-36.48
				C244.3,111.46,232.93,112.86,222.03,115.48L222.03,115.48z M368.21,164.68c-3.06,4.13-27.35,35.23-80.94,57.08
				c3.37,6.9,6.61,13.91,9.62,20.97c1.07,2.5,2.11,4.99,3.12,7.47c48.23-6.06,96.16,3.65,100.94,4.66
				C400.62,220.68,388.4,189.31,368.21,164.68L368.21,164.68z"/>
		</defs>
		<use xlink:href="#XMLID_3_"  style="overflow:visible;fill-rule:evenodd;clip-rule:evenodd;fill:#333333;"/>
		<clipPath id="XMLID_12_">
			<use xlink:href="#XMLID_3_"  style="overflow:visible;"/>
		</clipPath>
	</g>
</g>
</svg>
