<?xml version="1.0" encoding="utf-8"?>
<!-- Generator: Adobe Illustrator 25.2.3, SVG Export Plug-In . SVG Version: 6.00 Build 0)  -->
<svg version="1.1" id="Layer_1" xmlns="http://www.w3.org/2000/svg" xmlns:xlink="http://www.w3.org/1999/xlink" x="0px" y="0px"
	 viewBox="0 0 512 512" style="enable-background:new 0 0 512 512;" xml:space="preserve">
<style type="text/css">
	.st0{fill:#398906;}
</style>
<g>
	<path class="st0" d="M256,117.1c45.2,0,50.6,0.2,68.5,1c16.5,0.8,25.5,3.5,31.5,5.8c7.9,3.1,13.6,6.8,19.5,12.7
		c5.9,5.9,9.6,11.6,12.7,19.5c2.3,6,5.1,14.9,5.8,31.5c0.8,17.9,1,23.2,1,68.5s-0.2,50.6-1,68.5c-0.8,16.5-3.5,25.5-5.8,31.5
		c-3.1,7.9-6.8,13.6-12.7,19.5s-11.6,9.6-19.5,12.7c-6,2.3-15,5.1-31.5,5.8c-17.9,0.8-23.2,1-68.5,1s-50.6-0.2-68.5-1
		c-16.5-0.8-25.5-3.5-31.5-5.8c-7.9-3.1-13.6-6.8-19.5-12.7s-9.6-11.6-12.7-19.5c-2.3-6-5.1-15-5.8-31.5c-0.8-17.9-1-23.2-1-68.5
		s0.2-50.6,1-68.5c0.8-16.5,3.5-25.5,5.8-31.5c3.1-7.9,6.8-13.6,12.7-19.5s11.6-9.6,19.5-12.7c6-2.3,14.9-5.1,31.5-5.8
		C205.4,117.2,210.8,117.1,256,117.1 M256,86.5c-46,0-51.8,0.2-69.9,1c-18,0.8-30.4,3.7-41.1,7.9c-11.1,4.3-20.6,10.1-30,19.5
		s-15.2,18.9-19.6,30c-4.2,10.8-7.1,23.1-7.9,41.1c-0.8,18.1-1,23.9-1,69.9s0.2,51.8,1,69.9c0.8,18,3.7,30.4,7.9,41.1
		c4.3,11.1,10.1,20.6,19.6,30c9.4,9.4,18.9,15.2,30,19.5c10.8,4.2,23.1,7,41.1,7.9c18.1,0.8,23.9,1,69.9,1s51.8-0.2,69.9-1
		c18-0.8,30.4-3.7,41.1-7.9c11.1-4.3,20.6-10.1,30-19.5s15.2-18.9,19.5-30c4.2-10.8,7-23.1,7.9-41.1c0.8-18.1,1-23.9,1-69.9
		s-0.2-51.8-1-69.9c-0.8-18-3.7-30.4-7.9-41.1c-4.3-11.1-10.1-20.6-19.5-30s-18.9-15.2-30-19.6c-10.8-4.2-23.1-7.1-41.1-7.9
		C307.8,86.7,302,86.5,256,86.5z M256,169c-48.1,0-87,39-87,87s39,87,87,87s87-39,87-87S304.1,169,256,169z M256,312.5
		c-31.2,0-56.5-25.3-56.5-56.5s25.3-56.5,56.5-56.5s56.5,25.3,56.5,56.5S287.2,312.5,256,312.5z M366.8,165.5
		c0,11.2-9.1,20.3-20.3,20.3s-20.3-9.1-20.3-20.3s9.1-20.3,20.3-20.3S366.8,154.3,366.8,165.5z"/>
</g>
</svg>
