<?xml version="1.0" encoding="utf-8"?>
<!-- Generator: Adobe Illustrator 24.3.0, SVG Export Plug-In . SVG Version: 6.00 Build 0)  -->
<svg version="1.1" id="Layer_1" xmlns="http://www.w3.org/2000/svg" xmlns:xlink="http://www.w3.org/1999/xlink" x="0px" y="0px"
	 viewBox="0 0 1000 761" style="enable-background:new 0 0 1000 761;" xml:space="preserve">
<style type="text/css">
	.st0{fill:#FFFFFF;}
</style>
<g>
	<path class="st0" d="M227.72,254.25h143.57v-97.79H227.72c-123.73,0-224.04,100.3-224.04,224.03s100.3,224.04,224.04,224.04h143.57
		v-97.79H227.72c-69.73,0-126.25-56.52-126.25-126.25S157.99,254.25,227.72,254.25z"/>
	<path class="st0" d="M772.37,380.5v224.03h97.79V380.5c0-123.73-100.3-224.04-224.03-224.04S422.09,256.77,422.09,380.5v224.03
		h97.79V380.5c0-69.73,56.52-126.25,126.25-126.25S772.37,310.77,772.37,380.5z"/>
	<polygon class="st0" points="925.38,506.75 996.32,506.75 996.32,710.73 898.53,710.73 	"/>
	<polygon class="st0" points="493.03,254.25 422.09,254.25 422.09,50.27 519.87,50.27 	"/>
</g>
</svg>
